<?xml version="1.0" encoding="utf-8"?>
<!-- Generator: Adobe Illustrator 24.0.2, SVG Export Plug-In . SVG Version: 6.00 Build 0)  -->
<svg version="1.1" id="Layer_1" xmlns="http://www.w3.org/2000/svg" xmlns:xlink="http://www.w3.org/1999/xlink" x="0px" y="0px"
	 viewBox="0 0 1000 1000" style="enable-background:new 0 0 1000 1000;" xml:space="preserve">
<style type="text/css">
	.st0{fill:none;stroke:#000000;stroke-width:41;stroke-linecap:round;stroke-linejoin:round;stroke-miterlimit:10;}
	.st1{fill:none;stroke:#000000;stroke-width:26;stroke-linecap:round;stroke-linejoin:round;stroke-miterlimit:10;}
</style>
<path class="st0" d="M54.5,442.5c160.53-99.43,216.54-116.88,228-103c25.49,30.86-172.08,213.6-124,288c1.85,2.86,8.57,13.26,21,17
	c78.53,23.62,240.5-262.36,223-276c-5.51-4.3-31.16,16.66-47,38c-55.42,74.67-31.82,209.3,7,218c22.97,5.15,37.88-18.04,62-57
	c21.3-34.4,25.94-74.29,18-82c-11.94-11.6-27.39,14.4-32,68c-2.88,33.55-11.01,70.95,17,74c18.57,2.02,26.72-12.73,69-51
	c26.73-24.2,87.97-79.63,147-122c11.86-8.51,26.08-18.26,24-24c-2.47-6.83-28.33-9.01-37,2c-12.47,15.84,23.43,42.73,20,84
	c-3.18,38.29-38.82,72.07-73,79c-18.51,3.76-44.56,1.25-48-9c-2.3-6.85,5.15-18.18,13-19c15.91-1.67,21.89,41,40,53
	c66.82,44.29,375.67-277.97,360-295c-6.84-7.44-77.37,41.32-129,100c-62.7,71.26-102.18,162.44-86,175
	c23.61,18.32,170.61-126.93,175-122c2.13,2.4-33.65,35.51-58,93c-11.72,27.66-9.19,33.58-7,36c11.55,12.77,64.16-15.91,108-43"/>
<path class="st1" d="M462,345c-7.25-2.4-25.11,16.32-20,27c2.98,6.24,13.69,9.48,20,6C472.79,372.05,469.08,347.35,462,345z"/>
</svg>
